<svg xmlns="http://www.w3.org/2000/svg" viewBox="0 0 512 512">
  <path d="M498.1 5.6c10.1 7 15.4 19.1 13.5 31.2l-64 352c-1.5 8.7-7.3 16.1-15.9 19.8s-18.2 2.4-26-1.4L277.3 328.1l-40.1 74.5c-5.2 9.7-16.1 14.8-26.7 12.9s-19.1-8.1-22.2-18.5l-48-112c-4.4-10.3-.7-22.1 8.5-28.1l192-128c10.8-7.2 25.2-4.4 32.4 6.4s4.4 25.2-6.4 32.4L274.1 256l40.1 74.5c5.2 9.7 16.1 14.8 26.7 12.9s19.1-8.1 22.2-18.5l48-112c4.4-10.3.7-22.1-8.5-28.1l-192-128c-10.8-7.2-25.2-4.4-32.4 6.4s-4.4 25.2 6.4 32.4L237.9 256l-40.1-74.5c-5.2-9.7-16.1-14.8-26.7-12.9s-19.1 8.1-22.2 18.5l-48 112c-4.4 10.3.7 22.1 8.5 28.1l192 128c10.8 7.2 25.2 4.4 32.4-6.4s4.4-25.2-6.4-32.4L237.9 256l40.1-74.5c5.2-9.7 16.1-14.8 26.7-12.9s19.1 8.1 22.2 18.5l48 112c4.4 10.3.7 22.1-8.5 28.1l-192 128c-10.8 7.2-25.2 4.4-32.4-6.4s-4.4-25.2 6.4-32.4L237.9 256l-40.1 74.5c-5.2 9.7-16.1 14.8-26.7 12.9s-19.1-8.1-22.2-18.5l-48-112c-4.4-10.3-.7-22.1 8.5-28.1l192-128c10.8-7.2 25.2-4.4 32.4 6.4z" fill="#333333"/>
</svg>
